<?xml version="1.0" encoding="UTF-8" standalone="no"?>
<!-- Created with Inkscape (http://www.inkscape.org/) -->

<svg
   xmlns:dc="http://purl.org/dc/elements/1.1/"
   xmlns:cc="http://creativecommons.org/ns#"
   xmlns:rdf="http://www.w3.org/1999/02/22-rdf-syntax-ns#"
   xmlns:svg="http://www.w3.org/2000/svg"
   xmlns="http://www.w3.org/2000/svg"
   xmlns:sodipodi="http://sodipodi.sourceforge.net/DTD/sodipodi-0.dtd"
   xmlns:inkscape="http://www.inkscape.org/namespaces/inkscape"
   width="1200"
   height="1200"
   viewBox="0 0 317.49999 317.50003"
   version="1.1"
   id="svg8"
   inkscape:version="0.92.5 (2060ec1f9f, 2020-04-08)"
   sodipodi:docname="clouds.svg">
  <defs
     id="defs2" />
  <sodipodi:namedview
     id="base"
     pagecolor="#ffffff"
     bordercolor="#666666"
     borderopacity="1.0"
     inkscape:pageopacity="0.0"
     inkscape:pageshadow="2"
     inkscape:zoom="0.35"
     inkscape:cx="330.50111"
     inkscape:cy="503.11351"
     inkscape:document-units="mm"
     inkscape:current-layer="layer1"
     showgrid="false"
     inkscape:window-width="1194"
     inkscape:window-height="851"
     inkscape:window-x="1697"
     inkscape:window-y="448"
     inkscape:window-maximized="0"
     units="px" />
  <metadata
     id="metadata5">
    <rdf:RDF>
      <cc:Work
         rdf:about="">
        <dc:format>image/svg+xml</dc:format>
        <dc:type
           rdf:resource="http://purl.org/dc/dcmitype/StillImage" />
        <dc:title></dc:title>
      </cc:Work>
    </rdf:RDF>
  </metadata>
  <g
     inkscape:label="Layer 1"
     inkscape:groupmode="layer"
     id="layer1"
     transform="translate(0,20.500017)">
    <path
       style="opacity:1;vector-effect:none;fill:#1e3455;fill-opacity:0.1356784;stroke:none;stroke-width:10.6549015;stroke-linecap:round;stroke-linejoin:round;stroke-miterlimit:4;stroke-dasharray:none;stroke-dashoffset:0;stroke-opacity:1;paint-order:stroke fill markers"
       d="M 346.90234 107.74609 A 59.059324 59.059324 0 0 0 341.02148 108.26367 A 59.059324 59.059324 0 0 0 301.68945 131.6875 A 75.319036 75.319036 0 0 0 300.85156 131.9082 A 83.521765 83.521765 0 0 0 253.67578 124.61133 A 83.521765 83.521765 0 0 0 183.10547 192.07617 A 57.343828 57.343828 0 0 0 157.41406 227.01953 A 57.343828 57.343828 0 0 0 187.80273 292.37695 A 87.016397 87.016397 0 0 0 188.47852 308.29297 A 87.016397 87.016397 0 0 0 207.01562 350.92188 A 87.016397 87.016397 0 0 0 180.78125 425.78711 A 87.016397 87.016397 0 0 0 229.83594 492.44727 A 87.016397 87.016397 0 0 0 204.52148 566.44141 A 87.016397 87.016397 0 0 0 281.29492 640.88281 A 54.516294 54.516294 0 0 0 281.51172 653.49023 A 54.516294 54.516294 0 0 0 343 700.00195 A 54.516294 54.516294 0 0 0 383.81055 671.19531 A 87.016397 87.016397 0 0 0 436.63477 680.66602 A 87.016397 87.016397 0 0 0 505.71484 626.07812 A 54.516294 54.516294 0 0 0 522.60352 626.40625 A 54.516294 54.516294 0 0 0 569.35547 577.30078 A 49.162214 49.162214 0 0 0 596.26562 526.54492 A 49.162214 49.162214 0 0 0 573.15039 491.35156 A 78.470461 78.470461 0 0 0 601.20312 419.91211 A 78.470461 78.470461 0 0 0 573.10156 369.99609 A 29.61588 29.61588 0 0 0 579.79883 357.41406 A 29.61588 29.61588 0 0 0 576.39258 334.92578 A 64.577204 64.577204 0 0 0 621.89453 288.4043 A 64.577204 64.577204 0 0 0 574.89844 210.09961 A 64.577204 64.577204 0 0 0 520.61719 221.05273 A 101.34688 101.34688 0 0 0 504.54102 208.71094 A 78.470461 78.470461 0 0 0 450.56641 175.06641 A 53.259069 53.259069 0 0 0 450.64453 160.17773 A 53.259069 53.259069 0 0 0 390.57422 114.74023 A 53.259069 53.259069 0 0 0 380.95898 117.0332 A 59.059324 59.059324 0 0 0 346.90234 107.74609 z M 829.47656 417.45898 A 99.193718 99.193718 0 0 0 730.28125 516.65234 A 99.193718 99.193718 0 0 0 730.42383 520.65234 A 69.572725 69.572725 0 0 0 696.18359 540.41406 A 69.572725 69.572725 0 0 0 698.91211 638.76562 A 69.572725 69.572725 0 0 0 725.03711 654.25391 A 69.572725 69.572725 0 0 0 722.07812 712.01562 A 37.394289 37.394289 0 0 0 716.59375 716.77344 A 37.394289 37.394289 0 0 0 718.06055 769.63672 A 37.394289 37.394289 0 0 0 725.99414 775.35938 A 78.34866 78.34866 0 0 0 748.24023 850.53711 A 78.34866 78.34866 0 0 0 769.64844 864.83789 A 130.67437 130.67437 0 0 0 756.20703 922.19727 A 130.67437 130.67437 0 0 0 823.2793 1036.291 A 88.0829 88.0829 0 0 0 822.87305 1044.418 A 88.0829 88.0829 0 0 0 910.95508 1132.5 A 88.0829 88.0829 0 0 0 999.03711 1044.418 A 88.0829 88.0829 0 0 0 998.55273 1036.0176 A 89.318581 89.318581 0 0 0 1016.4375 1021.5762 A 89.318581 89.318581 0 0 0 1040.2109 970.29492 A 88.0829 88.0829 0 0 0 1046.248 959.37695 A 47.343227 47.343227 0 0 0 1055.3965 960.2832 A 47.343227 47.343227 0 0 0 1102.7383 912.93945 A 47.343227 47.343227 0 0 0 1102.1641 905.83008 A 78.34866 78.34866 0 0 0 1150.6875 881.79688 A 78.34866 78.34866 0 0 0 1147.6172 771.03711 A 78.34866 78.34866 0 0 0 1135.4434 761.69141 A 99.193718 99.193718 0 0 0 1108.7031 733.6875 A 66.787165 66.787165 0 0 0 1128.6641 686.09375 A 66.787165 66.787165 0 0 0 1109.9453 639.74219 A 113.08225 113.08225 0 0 0 1187.9219 532.39453 A 113.08225 113.08225 0 0 0 1186.7812 517.33984 A 48.269128 48.269128 0 0 0 1211.9961 474.98828 A 48.269128 48.269128 0 0 0 1163.7266 426.71875 A 48.269128 48.269128 0 0 0 1134.5957 436.55273 A 113.08225 113.08225 0 0 0 1074.8398 419.31055 A 113.08225 113.08225 0 0 0 981.23438 468.98828 A 45.491429 45.491429 0 0 0 947.99023 454.49609 A 45.491429 45.491429 0 0 0 915.74609 467.94531 A 99.193718 99.193718 0 0 0 829.47656 417.45898 z "
       transform="matrix(0.26458333,0,0,0.26458333,0,-20.500017)"
       id="circle1099" />
    <path
       style="fill:none;stroke:#000000;stroke-width:0.26458332px;stroke-linecap:butt;stroke-linejoin:miter;stroke-opacity:1"
       d="m 752.92858,-83.244065 c 1.00793,1.007936 2.23311,1.837775 3.02379,3.02381 0.27956,0.419327 -0.22537,1.06114 0,1.511905 0.11271,0.22538 0.5778,-0.178181 0.75597,0 0.17817,0.178179 -0.11269,0.530569 0,0.755952 0.15936,0.318738 0.50395,0.503968 0.75594,0.755952 0.50398,0.503967 1.11657,0.918887 1.51191,1.511906 0.13978,0.209663 -0.17817,0.57777 0,0.755951 0.17817,0.178181 0.57777,-0.178181 0.75596,0 0.50295,0.50297 -0.50297,1.008936 0,1.511906 0.17817,0.178178 0.50396,0 0.75595,0 0.50397,1.007936 1.15554,1.954731 1.5119,3.023809 0.15936,0.478105 -0.22537,1.061141 0,1.511903 0.11269,0.225383 0.57777,-0.178178 0.75594,0 0.1782,0.178181 -0.17817,0.577774 0,0.755955 0.39844,0.39842 1.19936,0.287128 1.51191,0.755951 0.27956,0.419328 -0.15936,1.033799 0,1.511904 0.11269,0.338074 0.59659,0.437216 0.75597,0.755954 0.11269,0.22538 -0.0797,0.516898 0,0.755951 0.17817,0.534541 0.57777,0.977366 0.75594,1.511906 0.0797,0.239051 -0.13978,0.546288 0,0.755952 0.50398,0.503968 1.00793,1.007935 1.51191,1.511903 0,0.251987 -0.11269,0.530572 0,0.755954 0.15936,0.318736 0.64326,0.417881 0.75594,0.755952 0,3.441311 -0.35634,0.04323 0.75597,2.267857 0.22537,0.450763 -0.27956,1.092579 0,1.511904 0.39534,0.593018 1.11654,0.918887 1.51191,1.511906 0.13837,0.207602 -0.0544,2.860664 0,3.023809 0.11268,0.338071 0.59658,0.437216 0.75594,0.755951 0.11268,0.225383 0,0.503971 0,0.755955 0,0.251983 0,0.503967 0,0.755951 0,0.503968 0,1.007936 0,1.511906 0,0.251984 -0.22537,0.64326 0,0.755952 0.45077,0.22538 1.06114,-0.225383 1.51191,0 0.22537,0.112691 0,0.503967 0,0.755951 0,0.529167 0,1.738691 0,2.267858 0,2.519841 0,5.039683 0,7.559524 0,0.251984 0,0.503968 0,0.755952 0,0.251983 0.17817,0.577773 0,0.755951 -0.39844,0.398423 -1.19936,0.287131 -1.51191,0.755954 -0.27956,0.419325 0,1.007936 0,1.511904 0,0.251983 0.17817,0.577773 0,0.755954 -0.17817,0.178178 -0.57777,-0.178181 -0.75594,0 -0.35637,0.356359 0.35634,1.155544 0,1.511903 -0.1782,0.178181 -0.5778,-0.178178 -0.75597,0 -0.17817,0.178181 0,0.503968 0,0.755952 0,0.50397 0.22537,1.061143 0,1.511906 -0.11269,0.225382 -0.57777,-0.178181 -0.75594,0 -0.1782,0.178181 0,0.503967 0,0.755951 -0.50398,0 -1.06114,-0.22538 -1.51191,0 -0.45077,0.225383 0.35637,1.155547 0,1.511906 -0.17817,0.178178 -0.57777,-0.178181 -0.75597,0 -0.17817,0.178178 0,0.503968 0,0.755952 -0.25196,0 -0.57777,-0.178179 -0.75594,0 -2.12857,0.04693 -0.19251,1.704402 -0.75594,2.267862 -0.1782,0.17818 -0.64328,-0.22539 -0.75597,0 -0.22537,0.45076 0.35637,1.15554 0,1.5119 -0.35636,0.35636 -1.06113,-0.22538 -1.51191,0 -0.22537,0.11269 0.1782,0.57777 0,0.75595 -0.17817,0.17818 -0.57777,-0.17818 -0.75594,0 -0.17817,0.17818 0.17817,0.57778 0,0.75595 -0.17817,0.17819 -0.57777,-0.17817 -0.75596,0 -0.17817,0.17819 0.17819,0.57778 0,0.75596 -0.17817,0.17818 -0.64326,-0.22538 -0.75594,0 -0.22538,0.45076 0.27955,1.09257 0,1.5119 -0.31256,0.46882 -1.11348,0.35753 -1.51191,0.75595 -0.17817,0.17818 0.17817,0.57778 0,0.75596 -0.17817,0.17818 -0.64326,-0.22538 -0.75594,0 -0.2254,0.45076 0.22537,1.06114 0,1.5119 -0.11269,0.22538 -0.57777,-0.17818 -0.75597,0 -0.50049,0.50049 0.50051,1.01141 0,1.51191 -0.17817,0.17818 -0.57777,-0.17818 -0.75594,0 -0.17817,0.17818 0.22537,0.64326 0,0.75595 -0.45077,0.22538 -1.06114,-0.22538 -1.51191,0 -0.29909,0.14954 0.37602,1.5158099 0,2.2678599 -0.11269,0.22538 -0.57777,-0.17819 -0.75594,0 -0.35637,0.35636 0.15936,1.03379 0,1.5119 -0.1782,0.53454 -0.5778,0.97736 -0.75597,1.51191 -0.0981,0.29415 0.11732,2.15054 0,2.26785 -0.17817,0.17818 -0.57777,-0.17818 -0.75594,0 -0.27157,0.27155 0.24453,2.53475 0,3.02381 -0.11269,0.22538 -0.57777,-0.17818 -0.75597,0 -0.0304,0.0304 0,2.7462 0,3.02381 0,3.02381 0,6.04762 0,9.0714301 0,0.68139 -0.15859,3.30397 0,3.77976 0.1782,0.53454 0.57777,0.97737 0.75597,1.51191 0.15936,0.4781 -0.2254,1.06114 0,1.5119 0.15936,0.31874 0.59658,0.43722 0.75594,0.75595 0.22537,0.45077 -0.35637,1.15555 0,1.51191 0.17817,0.17818 0.64326,-0.22538 0.75597,0 0.30236,0.60476 -0.30239,1.66309 0,2.26786 0.15936,0.31873 0.59658,0.43721 0.75594,0.75595 0.22537,0.45076 -0.35637,1.15554 0,1.5119 0.39841,0.39842 1.19936,0.28713 1.51191,0.75595 0.27956,0.41933 -0.15939,1.0338 0,1.51191 0.11268,0.33807 0.59658,0.43721 0.75594,0.75595 0.11268,0.22538 -0.0797,0.5169 0,0.75595 0.1782,0.53454 0.57777,0.97737 0.75597,1.51191 0.0797,0.23905 -0.1782,0.57777 0,0.75595 0.39841,0.39842 1.19935,0.28713 1.5119,0.75595 0.27954,0.41933 -0.0988,1.01773 0,1.51191 0.15627,0.78137 0.34597,1.58457 0.75595,2.26786 0.36668,0.61115 1.11656,0.91888 1.5119,1.5119 0.27956,0.41933 -0.27955,1.09258 0,1.51191 0.39534,0.59301 1.11657,0.91888 1.51191,1.5119 0.13978,0.20966 -0.17819,0.57777 0,0.75595 0.17817,0.17818 0.57777,-0.17818 0.75594,0 0.17817,0.17818 -0.0936,0.52199 0,0.75595 0.50398,1.00794 1.00793,2.01588 1.51191,3.02381 0,0.50397 -0.15936,1.0338 0,1.51191 0.11269,0.33807 0.59658,0.43721 0.75594,0.75595 0.23413,0.46825 -0.22365,2.80014 0,3.02381 0.1782,0.17818 0.5778,-0.17818 0.75597,0 0.24919,0.24919 -0.18235,2.47677 0,3.02381 0.11269,0.33807 0.59658,0.43722 0.75594,0.75595 0.24112,0.4822 -0.20209,3.57766 0,3.77976 0.1782,0.17819 0.57777,-0.17818 0.75597,0 0.17817,0.17819 0,0.50397 0,0.75596 0,0.25198 0,0.50396 0,0.75595 0,2.01587 0,4.03174 0,6.04762 0,0.25198 0,0.50397 0,0.75595 0,0.25198 0.11269,0.53057 0,0.75595 -0.15939,0.31874 -0.59658,0.43722 -0.75597,0.75596 -0.14986,0.29972 0.15454,2.11331 0,2.26785 -0.17817,0.17818 -0.57777,-0.17818 -0.75594,0 -0.37798,0.37798 0.37798,1.88988 0,2.26786 -0.17817,0.17818 -0.57777,-0.17818 -0.75597,0 -0.1819,0.1819 0.18193,2.8419 0,3.02381 -0.17817,0.17818 -0.57777,-0.17818 -0.75594,0 -0.27154,0.27155 0.24453,2.53474 0,3.02381 -0.11268,0.22538 -0.57777,-0.17818 -0.75594,0 -0.20685,0.20684 0.20503,2.61371 0,3.02381 -0.15938,0.31874 -0.64328,0.41788 -0.75597,0.75595 -0.0628,0.18845 0.0779,3.70189 0,3.77976 -0.17817,0.17818 -0.67627,-0.23905 -0.75594,0 -0.18039,0.54118 0,4.19727 0,5.29167 0,0.28807 0.0734,3.70639 0,3.77976 -0.39843,0.39842 -1.1135,0.35753 -1.51191,0.75595 -0.17817,0.17818 0,0.50397 0,0.75596 0,1.25992 0,2.51984 0,3.77976 0,0.25198 0,0.503958 0,0.755948 0,0.25198 0.11269,0.53057 0,0.75595 -0.15938,0.31874 -0.59658,0.43722 -0.75596,0.75595 -0.11502,0.23006 0,1.92741 0,2.26786 0,1.76389 0,3.52778 0,5.29167 0,0.18334 -0.0244,2.24354 0,2.26786 0.17819,0.17817 0.57779,-0.17818 0.75596,0 0.37799,0.37797 -0.37798,1.88988 0,2.26785 0.17817,0.17818 0.57777,-0.17818 0.75594,0 0.37799,0.37798 -0.37795,1.88988 0,2.26786 0.1782,0.17818 0.64329,-0.22538 0.75597,0 0.67615,0.59633 -0.33808,1.59171 0,2.26786 0.15936,0.31873 0.59658,0.43721 0.75594,0.75595 0.22538,0.45076 -0.35636,1.15554 0,1.5119 0.17817,0.17818 0.57777,-0.17818 0.75597,0 0.26387,0.26387 -0.31379,2.11097 0,2.26786 0.45075,0.22538 1.06114,-0.22538 1.51188,0 0.45077,0.22538 -0.35634,1.15554 0,1.5119 0.1782,0.17819 0.5778,-0.17817 0.75597,0 0.37798,0.37798 -0.37798,1.88989 0,2.26786 0.17817,0.17818 0.57777,-0.17818 0.75594,0 0.15454,0.15455 -0.14986,1.96813 0,2.26786 0.15939,0.31874 0.59658,0.43722 0.75597,0.75595 0.20505,0.4101 -0.20685,2.81697 0,3.02381 0.17817,0.17818 0.64325,-0.22538 0.75594,0 0.16066,0.32129 0,3.14627 0,3.77976 0,0.25199 -0.17817,0.57778 0,0.75595 0.17817,0.17819 0.57777,-0.17817 0.75597,0 0.23407,0.23408 -0.23408,3.54569 0,3.77977 0.17817,0.17818 0.57777,-0.17818 0.75594,0 0.17817,0.17818 0,0.50397 0,0.75595 0,0.25198 0,0.50397 0,0.75595 0,2.01588 -0.25199,-0.25198 0.75594,0.75596 0.35637,0.35636 -0.22537,1.06114 0,1.5119 0.15938,0.31874 0.59658,0.43721 0.75597,0.75595 0.22537,0.45077 -0.35637,1.15555 0,1.51191 0.17817,0.17818 0.57777,-0.17818 0.75594,0 0.37798,0.37797 -0.37796,1.88988 0,2.26785 0.1782,0.17818 0.57777,-0.17818 0.75597,0 0.35634,0.35636 -0.35637,1.15555 0,1.51191 0.17817,0.17818 0.57777,-0.17818 0.75594,0 0.17817,0.17818 -0.17817,0.57777 0,0.75595 0.17817,0.17818 0.57777,-0.17818 0.75596,0 0.17817,0.17818 -0.17819,0.57777 0,0.75595 0.17817,0.17817 0.57777,-0.17818 0.75595,0 0.17817,0.17817 -0.17818,0.57777 0,0.75594 0.17817,0.1782 0.50397,0 0.75594,0 0.25199,0 0.50397,0 0.75596,0 1.7639,0 3.52777,0 5.29167,0 0.17963,0 2.85438,0.0847 3.02382,0 0.31871,-0.15935 0.43719,-0.59658 0.75594,-0.75594 0.29972,-0.14986 2.1133,0.15455 2.26785,0 1.25992,-1.25992 -2.77183,-0.75595 1.51191,-0.75595 0.18333,0 2.24356,0.0243 2.26785,0 0.17819,-0.17818 -0.17817,-0.57777 0,-0.75595 0.0304,-0.0304 2.74621,0 3.02381,0 0.27763,0 2.99339,0.0304 3.02382,0 0.17817,-0.17818 -0.22537,-0.64326 0,-0.75595 0.48906,-0.24454 2.75225,0.27155 3.02382,0 0.17817,-0.17818 -0.1782,-0.57778 0,-0.75596 0.35634,-0.35636 1.15554,0.35636 1.51188,0 0.1782,-0.17818 -0.17817,-0.57777 0,-0.75595 0.1782,-0.17818 0.5778,0.17818 0.75597,0 0.17817,-0.17818 -0.17817,-0.57777 0,-0.75595 0.35636,-0.35636 1.15554,0.35636 1.51191,0 0.17817,-0.17818 -0.1782,-0.57777 0,-0.75595 0.17817,-0.17818 0.64325,0.22538 0.75594,0 0.22537,-0.45077 0,-1.00794 0,-1.51191 0,-0.25198 -0.17817,-0.57777 0,-0.75595 0.17817,-0.17818 0.57777,0.17818 0.75596,0 0,-2.01587 -0.25199,0.25198 0.75594,-0.75595 0.17818,-0.17818 0,-0.50397 0,-0.75595 0,-0.50397 -0.22537,-1.06115 0,-1.51191 0.11269,-0.22538 0.57778,0.17818 0.75595,0 0.35636,-0.35636 -0.45075,-1.28652 0,-1.51191 0.45077,-0.22538 1.06116,0.22539 1.5119,0 0.29909,-0.14954 -0.37602,-1.5158 0,-2.26785 0.11269,-0.22538 0.57777,0.17818 0.75597,0 0.37796,-0.37798 -0.37798,-1.88988 0,-2.26786 0.17817,-0.17818 0.57777,0.17818 0.75594,0 0.35637,-0.35636 -0.22537,-1.06114 0,-1.5119 0.15939,-0.31874 0.59659,-0.43722 0.75597,-0.75596 0.30237,-0.60476 -0.30239,-1.66309 0,-2.26785 0.15936,-0.31874 0.59658,-0.43722 0.75594,-0.75596 0.23757,-0.47513 -0.23757,-2.54867 0,-3.0238 0.11269,-0.22539 0.57777,0.17817 0.75594,0 0.1782,-0.17819 0,-0.50397 0,-0.75596 0,-0.25198 0,-0.50397 0,-0.75595 0,-1.25992 0,-2.51984 0,-3.77976 0,-0.50397 -0.15936,-1.0338 0,-1.51191 0.11271,-0.33807 0.59658,-0.43721 0.75597,-0.75595 0.11501,-0.23006 0,-1.92741 0,-2.26786 0,-1.25992 0,-2.51984 0,-3.77976 0,-0.25198 0,-0.50397 0,-0.75595 0,-0.25198 -0.17817,-0.57777 0,-0.75595 0.17817,-0.17818 0.69482,0.24446 0.75594,0 0.24448,-0.97784 0,-2.01588 0,-3.02381 0,-1.25992 0,-2.51984 0,-3.77976 0,-0.75596 -0.23905,-1.5507 0,-2.26786 0.11269,-0.33807 0.66953,-0.41023 0.75597,-0.75595 0.18333,-0.73338 0,-1.51191 0,-2.26786 0,-0.503968 0,-1.007938 0,-1.511898 0,-2.01588 0,-4.03175 0,-6.04763 0,-4.28372 -0.50398,-0.25198 0.75594,-1.5119 0.0243,-0.0243 0,-2.08452 0,-2.26786 0,-3.02381 0,-6.04761 0,-9.07142 0,-1.25993 0,-2.51984 0,-3.77977 0,-0.50396 -0.22537,-1.06114 0,-1.5119 0.11269,-0.22538 0.67627,0.23905 0.75597,0 0.23905,-0.71716 0,-1.51191 0,-2.26786 0,-0.50397 0,-1.00794 0,-1.5119 0,-0.42161 -0.0303,-3.74943 0,-3.77976 0.35634,-0.35636 1.06113,0.22538 1.51188,0 0.2254,-0.1127 0,-0.50397 0,-0.75596 0,-1.00793 -0.31872,-2.0676 0,-3.02381 0.0797,-0.23905 0.67627,0.23906 0.75597,0 0.15859,-0.47579 -0.18632,-4.16306 0,-4.53571 0.15936,-0.31874 0.64325,-0.41788 0.75594,-0.75595 0,-0.003 0,-2.26714 0,-2.26786 0.39843,-0.39842 1.19935,-0.28713 1.51191,-0.75595 0.27955,-0.41933 0,-1.00794 0,-1.51191 0,-0.25198 -0.17817,-0.57777 0,-0.75595 0.17817,-0.17818 0.57777,0.17818 0.75596,0 0.37796,-0.37798 -0.37798,-1.88988 0,-2.26786 0.17817,-0.17818 0.57777,0.17818 0.75594,0 0.17818,-0.17818 0,-0.50397 0,-0.75595 0,-0.50397 -0.22537,-1.06114 0,-1.5119 0.11269,-0.22539 0.57778,0.17818 0.75595,0 0.35636,-0.35636 -0.35635,-1.15555 0,-1.51191 0.17819,-0.17818 0.57779,0.17818 0.75596,0 1.56409,-1.56409 -2.39014,0.0611 0.75594,-1.5119 2.26788,-1.13393 -1.25992,2.51984 0.75597,-1.51191 0.11269,-0.22538 0.57777,0.17818 0.75594,0 0.17817,-0.17818 -0.17817,-0.57777 0,-0.75595 0.17817,-0.17818 0.57777,0.17818 0.75597,0 0.17817,-0.17818 -0.1782,-0.57777 0,-0.75595 0.35634,-0.35636 1.15554,0.35636 1.51188,0 0.1782,-0.17818 -0.22537,-0.64326 0,-0.75596 0.75205,-0.37602 2.11834,0.29909 2.26788,0 0.22537,-0.45076 -0.2254,-1.06114 0,-1.5119 0.22537,-0.45076 1.15554,0.35636 1.51191,0 0.17817,-0.17818 -0.2254,-0.64326 0,-0.75595 0.45074,-0.22538 1.00793,0 1.51188,0 0.25199,0 0.5778,0.17818 0.75597,0 0.17817,-0.17818 -0.17817,-0.57778 0,-0.75595 0.35636,-0.35636 1.15554,0.35635 1.5119,0 0.39841,-0.39843 0.28713,-1.19936 0.75595,-1.51191 0.41933,-0.27955 1.00793,0 1.5119,0 0.25199,0 0.57778,0.17818 0.75595,0 0.17819,-0.17818 -0.17817,-0.57777 0,-0.75595 0.37798,-0.37798 1.88989,0.37797 2.26787,0 0.17817,-0.17818 -0.1782,-0.57778 0,-0.75595 0.37796,-0.37798 1.88987,0.37797 2.26785,0 0.17817,-0.17818 -0.17817,-0.57778 0,-0.75596 0.0607,-0.0607 3.18474,0 3.77976,0 0.25199,0 0.57777,0.17818 0.75597,0 0.17817,-0.17818 -0.1782,-0.57777 0,-0.75595 0.35634,-0.35636 1.15554,0.35636 1.51188,0 0.1782,-0.17818 -0.17817,-0.57777 0,-0.75595 0.35637,-0.35636 1.15557,0.35636 1.51191,0 0.17819,-0.17818 -0.17817,-0.57777 0,-0.75595 0.17819,-0.17818 0.57777,0.17818 0.75596,0 0.17818,-0.17818 -0.17819,-0.57778 0,-0.75596 0.17818,-0.17818 0.57778,0.17818 0.75595,0 0.17817,-0.17818 -0.17817,-0.57777 0,-0.75595 0.17817,-0.17818 0.50397,0 0.75596,0 0,-0.25198 -0.17819,-0.57777 0,-0.75595 0.17817,-0.17818 0.57777,0.17818 0.75594,0 0.17817,-0.17818 -0.17817,-0.57777 0,-0.75595 0.17817,-0.17818 0.57777,0.17818 0.75595,0 0.17819,-0.17818 -0.17818,-0.57778 0,-0.75596 0.17819,-0.17817 0.57779,0.17818 0.75596,0 0.17817,-0.17817 -0.17817,-0.57777 0,-0.75595 0.17817,-0.17818 0.57777,0.17818 0.75594,0 0.1782,-0.17818 -0.17817,-0.57777 0,-0.75595 0.1782,-0.17818 0.57777,0.17818 0.75597,0 0.17817,-0.17818 -0.1782,-0.57777 0,-0.75595 0.17817,-0.17818 0.57777,0.17818 0.75594,0 0.17817,-0.17818 -0.17817,-0.57777 0,-0.75596 0.17817,-0.17818 0.57777,0.17819 0.75597,0 0.17817,-0.17818 -0.1782,-0.57777 0,-0.75595 0.17817,-0.17818 0.57777,0.17818 0.75594,0 0.35637,-0.35636 -0.35637,-1.15554 0,-1.5119 0.17817,-0.17818 0.57777,0.17818 0.75594,0 0.1782,-0.17818 0,-0.50397 0,-0.75595 0,-0.50397 -0.22537,-1.06115 0,-1.51191 0.11271,-0.22538 0.5778,0.17818 0.75597,0 0.35637,-0.35636 -0.35637,-1.15554 0,-1.5119 0.17817,-0.17818 0.57777,0.17817 0.75594,0 0.1782,-0.17818 0,-0.50397 0,-0.75596 0,-0.50397 -0.22537,-1.06114 0,-1.5119 0.11269,-0.22538 0.57777,0.17818 0.75597,0 0.35634,-0.35636 -0.35637,-1.15555 0,-1.51191 0.17817,-0.17818 0.57777,0.17818 0.75594,0 0.50297,-0.50297 -0.50297,-1.00893 0,-1.5119 0.17817,-0.17818 0.57777,0.17818 0.75597,0 0.35634,-0.35636 -0.35637,-1.15555 0,-1.51191 0.17817,-0.17817 0.57777,0.17818 0.75594,0 0.35636,-0.35636 -0.35637,-1.15554 0,-1.5119 0.17817,-0.17818 0.57777,0.17818 0.75594,0 0.35637,-0.35636 -0.35634,-1.15555 0,-1.5119101 0.1782,-0.17818 0.5778,0.17819 0.75597,0 0.35636,-0.35635 -0.35637,-1.15554 0,-1.5119 0.17817,-0.17818 0.57777,0.17818 0.75594,0 0.17819,-0.17818 -0.17817,-0.57777 0,-0.75595 0.17819,-0.17818 0.57777,0.17818 0.75596,0 0.35635,-0.35636 -0.35636,-1.15555 0,-1.51191 2.01586,0 -0.25198,0.25199 0.75595,-0.75595 0.17817,-0.17818 0.57777,0.17818 0.75596,0 0.17817,-0.17818 0,-0.50397 0,-0.75595 0.50395,-0.50397 0.91887,-1.11656 1.51189,-1.51191 0.20968,-0.13977 0.57779,0.17818 0.75596,0 0.17817,-0.17818 -0.22537,-0.64326 0,-0.75595 0.45077,-0.22538 1.06114,0.22538 1.51191,0 0.22537,-0.11269 -0.1782,-0.57777 0,-0.75595 0.17817,-0.17818 0.50395,0 0.75594,0 0,-0.25198 -0.11268,-0.53057 0,-0.75595 1.57306,-3.1461 -0.0522,0.80814 1.51191,-0.75596 0.17817,-0.17818 -0.17817,-0.57777 0,-0.75595 0.17817,-0.17818 0.64326,0.22538 0.75594,0 0.2254,-0.45076 -0.22537,-1.06114 0,-1.5119 0.11271,-0.22538 0.5778,0.17818 0.75597,0 0.17817,-0.17818 -0.11269,-0.53057 0,-0.75596 0.15936,-0.31873 0.59658,-0.43721 0.75594,-0.75595 0.11269,-0.22538 -0.22537,-0.64326 0,-0.75595 0.45077,-0.22538 1.03381,0.15937 1.51191,0 2.35958,-0.78652 -0.25199,-0.50397 0.75597,-1.5119 0.17817,-0.17819 0.57777,0.17818 0.75594,0 0.17817,-0.17819 -0.17817,-0.57778 0,-0.75596 0.17817,-0.17818 0.64325,0.22538 0.75594,0 0.2254,-0.45076 -0.22537,-1.06114 0,-1.5119 0.11271,-0.22538 0.5778,0.17818 0.75597,0 0.17817,-0.17818 -0.17817,-0.57778 0,-0.75595 0.17817,-0.17819 0.57777,0.17817 0.75594,0 0.17819,-0.17819 -0.22538,-0.64327 0,-0.75596 0.45077,-0.2253799 1.06113,0.22538 1.51191,0 0.22537,-0.1126899 -0.17818,-0.5777699 0,-0.7559499 0.17817,-0.17818 0.50397,0 0.75596,0 0,-0.25198 -0.17819,-0.57777 0,-0.75595 0.17817,-0.17818 0.57777,0.17818 0.75594,0 0,-2.01588 -0.25199,0.25198 0.75594,-0.75595 0.1782,-0.17818 -0.17817,-0.57778 0,-0.75596 0.1782,-0.17818 0.5778,0.17818 0.75597,0 0.17817,-0.17818 -0.17817,-0.57777 0,-0.75595 0.17817,-0.17818 0.57777,0.17818 0.75594,0 0.1782,-0.17818 -0.17817,-0.57777 0,-0.75595 0.1782,-0.17818 0.57777,0.17818 0.75597,0 0.17817,-0.17818 0,-0.50397 0,-0.75595 0.25199,0 0.57777,0.17818 0.75594,0 0.17817,-0.17818 -0.17817,-0.57778 0,-0.75596 0.17817,-0.17817 0.57777,0.17818 0.75597,0 0.17817,-0.17817 -0.1782,-0.57777 0,-0.75595 0.17817,-0.17818 0.57777,0.17818 0.75594,0 0.17817,-0.17818 -0.17817,-0.57777 0,-0.75595 0.17817,-0.17818 0.64326,0.22538 0.75594,0 0.2254,-0.45076 0,-1.00794 0,-1.51191 0,-0.25198 -0.17817,-0.57777 0,-0.75595 0.1782,-0.17818 0.5778,0.17818 0.75597,0 0.17817,-0.17818 -0.11269,-0.53057 0,-0.75595 0.15936,-0.31874 0.59658,-0.43721 0.75594,-0.75595 0.11269,-0.22538 -0.17817,-0.57777 0,-0.75595 0.1782,-0.17819 0.57777,0.17818 0.75597,0 0.35634,-0.35636 -0.2254,-1.06115 0,-1.511911 0.15936,-0.318735 0.59658,-0.437213 0.75594,-0.755951 0.22537,-0.450763 -0.35637,-1.155544 0,-1.511904 0.17817,-0.178181 0.57777,0.178179 0.75597,0 0.35634,-0.356359 -0.2254,-1.061143 0,-1.511905 0.15935,-0.318739 0.59658,-0.437216 0.75594,-0.755952 0.14986,-0.299731 -0.15455,-2.113314 0,-2.267858 0.17817,-0.178181 0.64325,0.225381 0.75594,0 0.16065,-0.321291 0,-3.146274 0,-3.779763 0,-0.251984 -0.22537,-0.64326 0,-0.755951 0.45077,-0.225381 1.06116,0.225382 1.51191,0 0.2254,-0.112692 0,-0.503968 0,-0.755952 0,-0.251984 0,-0.503968 0,-0.755952 0,-2.015873 0,-4.031747 0,-6.047621 0,-1.763887 0,-3.527776 0,-5.291666 0,-0.251984 0.17819,-0.577771 0,-0.755952 -0.39841,-0.398423 -1.19936,-0.287131 -1.51191,-0.755951 -0.0628,-0.09423 0.0883,-2.935513 0,-3.02381 -0.17817,-0.178181 -0.57777,0.178179 -0.75594,0 -0.35637,-0.356359 0.22537,-1.061143 0,-1.511905 -0.15936,-0.318739 -0.64326,-0.417881 -0.75594,-0.755952 -0.18235,-0.547045 0.24918,-2.774619 0,-3.023809 -0.1782,-0.178181 -0.5778,0.178178 -0.75597,0 -0.15454,-0.154546 0.14986,-1.96813 0,-2.267858 -0.15936,-0.318738 -0.64326,-0.41788 -0.75594,-0.755954 0,-0.0034 0,-2.267135 0,-2.267855 -0.39844,-0.398423 -1.1135,-0.357531 -1.51191,-0.755954 -0.35637,-0.356359 0.35637,-1.155544 0,-1.511903 -0.17817,-0.178181 -0.57777,0.178178 -0.75597,0 -0.35634,-0.35636 0.15939,-1.033799 0,-1.511906 -0.17817,-0.534538 -0.57777,-0.977366 -0.75594,-1.511903 -0.15936,-0.478108 0.35637,-1.155547 0,-1.511906 -0.17817,-0.178181 -0.57777,0.178181 -0.75594,0 0,-7.94e-4 0,-2.264431 0,-2.267858 -0.11271,-0.338071 -0.59658,-0.437213 -0.75597,-0.755951 -0.11268,-0.225383 0,-0.503968 0,-0.755952 -0.50395,-0.251986 -1.11347,-0.357531 -1.51191,-0.755954 -0.17817,-0.178179 0.11269,-0.530569 0,-0.755952 -0.15936,-0.318738 -0.64325,-0.41788 -0.75594,-0.755951 -0.15938,-0.478108 0.22537,-1.061144 0,-1.511906 -0.11268,-0.22538 -0.57777,0.178181 -0.75597,0 -0.35634,-0.35636 0.35637,-1.155544 0,-1.511904 -0.17817,-0.178181 -0.57777,0.178179 -0.75594,0 -0.17817,-0.178181 0.17817,-0.577773 0,-0.755954 -2.01586,0 0.25199,0.251984 -0.75594,-0.755951 -0.17819,-0.178181 -0.57779,0.178181 -0.75596,0 -0.17818,-0.178181 0.17817,-0.577774 0,-0.755952 -0.35637,-0.356359 -1.15555,0.356359 -1.51191,0 -0.17817,-0.178181 0.17819,-0.577773 0,-0.755954 -0.23408,-0.234077 -3.54568,0.234079 -3.77976,0 -0.17817,-0.178179 0.17817,-0.577771 0,-0.755952 -0.0243,-0.02432 -2.08452,0 -2.26785,0 -0.47405,0 -2.93045,0.09338 -3.02382,0 -0.17817,-0.178178 0.17817,-0.577773 0,-0.755952 -0.0304,-0.03042 -2.74619,0 -3.02381,0 -4.78769,0 -9.57538,0 -14.3631,0 -0.18333,0 -2.24353,-0.02432 -2.26785,0 -0.17817,0.178179 0.17817,0.577774 0,0.755952 -0.0243,0.02431 -2.08452,0 -2.26785,0 -4.28373,0 -8.56747,0 -12.8512,0 -3.0238,0 -6.04761,0 -9.07143,0 -0.25199,0 -0.50395,0 -0.75594,0 -0.25199,0 -0.57777,0.178181 -0.75597,0 -0.17817,-0.178178 0.1782,-0.577773 0,-0.755952 -0.17817,-0.178181 -0.50395,0 -0.75594,0 -1.25992,0 -2.51984,0 -3.77976,0 -0.25199,0 -0.57777,0.178179 -0.75596,0 -0.17817,-0.178181 0.17819,-0.577773 0,-0.755951 -0.17817,-0.178181 -0.50396,0 -0.75595,0 -0.5258,0 -3.50639,0.136686 -3.77975,0 -0.31875,-0.159369 -0.41789,-0.643263 -0.75597,-0.755954 -0.41804,-0.139351 -3.77441,0 -4.5357,0 -3.52777,0 -7.05556,0 -10.58333,0 -0.53584,0 -4.34028,0.09773 -4.53573,0 -0.31872,-0.15937 -0.4372,-0.596583 -0.75594,-0.755952 -0.29972,-0.149864 -2.11331,0.154543 -2.26785,0 -0.1782,-0.17818 0.17817,-0.577773 0,-0.755952 -0.18193,-0.181906 -2.84192,0.181905 -3.02382,0 -1.00793,-1.007937 1.25992,-0.755953 -0.75596,-0.755953 -0.20111,0 -2.20544,0.124836 -2.26785,0 -0.22538,-0.450763 0.22537,-1.061142 0,-1.511904 -0.11269,-0.225382 -0.50396,0 -0.75594,0 -0.27763,0 -2.99339,0.03042 -3.02382,0 -0.17817,-0.17818 0.22537,-0.643262 0,-0.755953 -0.45077,-0.225381 -1.00793,0 -1.51191,0 -1.25992,0 -2.51984,0 -3.77976,0 -0.25199,0 -0.50398,0 -0.75594,0 -0.25199,0 -0.5778,0.17818 -0.75597,0 -0.17817,-0.178179 0.17817,-0.577773 0,-0.755952 -0.17817,-0.17818 -0.50395,0 -0.75594,0 -1.51191,0 -3.02381,0 -4.53572,0 -0.25199,0 -0.50396,0 -0.75594,0 -0.25199,0 -0.57777,-0.17818 -0.75597,0 -0.17817,0.178179 0.1782,0.577773 0,0.755952 -0.1819,0.181906 -2.84189,-0.181905 -3.02379,0 -0.1782,0.17818 0.17817,0.577773 0,0.755953 -0.1782,0.178179 -0.50398,0 -0.75597,0 -1.51191,0 -3.02382,0 -4.5357,0 -0.25199,0 -0.50398,0 -0.75597,0 -0.25199,0 -0.57777,-0.17818 -0.75594,0 -0.17819,0.178179 0.17817,0.577772 0,0.755952 -0.17819,0.178179 -0.50398,0 -0.75597,0 -0.25198,0 -0.50395,0 -0.75594,0 -0.18333,0 -2.24356,-0.02431 -2.26785,0 -0.17819,0.178179 0.17817,0.577773 0,0.755952 -0.18192,0.181906 -2.84191,-0.181905 -3.02381,0 -0.17817,0.17818 0.17817,0.577773 0,0.755953 -0.17817,0.178179 -0.57777,-0.17818 -0.75597,0 -0.17817,0.178179 0.1782,0.577772 0,0.755952 -0.17817,0.178181 -0.57777,-0.17818 -0.75594,0 -0.17817,0.178181 0,0.503968 0,0.755952 -0.75594,0.503967 -1.51191,1.007938 -2.26785,1.511905 z"
       id="path890"
       inkscape:connector-curvature="0" />
    <path
       style="opacity:1;vector-effect:none;fill:#c4d0e3;fill-opacity:0.46231157;stroke:none;stroke-width:10.6549015;stroke-linecap:round;stroke-linejoin:round;stroke-miterlimit:4;stroke-dasharray:none;stroke-dashoffset:0;stroke-opacity:1;paint-order:stroke fill markers"
       d="M 266.90234 87.746094 A 59.059324 59.059324 0 0 0 261.02148 88.263672 A 59.059324 59.059324 0 0 0 221.68945 111.6875 A 75.319036 75.319036 0 0 0 220.85156 111.9082 A 83.521765 83.521765 0 0 0 173.67578 104.61133 A 83.521765 83.521765 0 0 0 103.10547 172.07617 A 57.343828 57.343828 0 0 0 77.414062 207.01953 A 57.343828 57.343828 0 0 0 107.80273 272.37695 A 87.016397 87.016397 0 0 0 108.47852 288.29297 A 87.016397 87.016397 0 0 0 127.01562 330.92188 A 87.016397 87.016397 0 0 0 100.78125 405.78711 A 87.016397 87.016397 0 0 0 149.83594 472.44727 A 87.016397 87.016397 0 0 0 124.52148 546.44141 A 87.016397 87.016397 0 0 0 201.29492 620.88281 A 54.516294 54.516294 0 0 0 201.51172 633.49023 A 54.516294 54.516294 0 0 0 263 680.00195 A 54.516294 54.516294 0 0 0 303.81055 651.19531 A 87.016397 87.016397 0 0 0 356.63477 660.66602 A 87.016397 87.016397 0 0 0 425.71484 606.07812 A 54.516294 54.516294 0 0 0 442.60352 606.4043 A 54.516294 54.516294 0 0 0 489.35547 557.30078 A 49.162214 49.162214 0 0 0 516.26562 506.54492 A 49.162214 49.162214 0 0 0 493.15039 471.35156 A 78.470461 78.470461 0 0 0 521.20312 399.91211 A 78.470461 78.470461 0 0 0 493.10156 349.99609 A 29.61588 29.61588 0 0 0 499.79883 337.41406 A 29.61588 29.61588 0 0 0 496.39258 314.92578 A 64.577204 64.577204 0 0 0 541.89453 268.4043 A 64.577204 64.577204 0 0 0 494.89844 190.09961 A 64.577204 64.577204 0 0 0 440.61719 201.05273 A 101.34688 101.34688 0 0 0 424.54102 188.71094 A 78.470461 78.470461 0 0 0 370.56641 155.06641 A 53.259069 53.259069 0 0 0 370.64453 140.17773 A 53.259069 53.259069 0 0 0 310.57422 94.740234 A 53.259069 53.259069 0 0 0 300.95898 97.033203 A 59.059324 59.059324 0 0 0 266.90234 87.746094 z M 749.47656 397.45898 A 99.193718 99.193718 0 0 0 650.28125 496.65234 A 99.193718 99.193718 0 0 0 650.42383 500.65234 A 69.572725 69.572725 0 0 0 616.18359 520.41406 A 69.572725 69.572725 0 0 0 618.91211 618.76562 A 69.572725 69.572725 0 0 0 645.03711 634.25391 A 69.572725 69.572725 0 0 0 642.07812 692.01562 A 37.394289 37.394289 0 0 0 636.59375 696.77344 A 37.394289 37.394289 0 0 0 638.06055 749.63672 A 37.394289 37.394289 0 0 0 645.99414 755.35938 A 78.34866 78.34866 0 0 0 668.24023 830.53711 A 78.34866 78.34866 0 0 0 689.64844 844.83789 A 130.67437 130.67437 0 0 0 676.20703 902.19727 A 130.67437 130.67437 0 0 0 743.2793 1016.291 A 88.0829 88.0829 0 0 0 742.87305 1024.418 A 88.0829 88.0829 0 0 0 830.95508 1112.5 A 88.0829 88.0829 0 0 0 919.03711 1024.418 A 88.0829 88.0829 0 0 0 918.55273 1016.0176 A 89.318581 89.318581 0 0 0 936.4375 1001.5762 A 89.318581 89.318581 0 0 0 960.21094 950.29492 A 88.0829 88.0829 0 0 0 966.24805 939.37695 A 47.343227 47.343227 0 0 0 975.39648 940.2832 A 47.343227 47.343227 0 0 0 1022.7383 892.93945 A 47.343227 47.343227 0 0 0 1022.1641 885.83008 A 78.34866 78.34866 0 0 0 1070.6875 861.79688 A 78.34866 78.34866 0 0 0 1067.6172 751.03711 A 78.34866 78.34866 0 0 0 1055.4434 741.69141 A 99.193718 99.193718 0 0 0 1028.7031 713.6875 A 66.787165 66.787165 0 0 0 1048.6641 666.09375 A 66.787165 66.787165 0 0 0 1029.9453 619.74219 A 113.08225 113.08225 0 0 0 1107.9219 512.39453 A 113.08225 113.08225 0 0 0 1106.7812 497.33984 A 48.269128 48.269128 0 0 0 1131.9961 454.98828 A 48.269128 48.269128 0 0 0 1083.7266 406.71875 A 48.269128 48.269128 0 0 0 1054.5957 416.55273 A 113.08225 113.08225 0 0 0 994.83984 399.31055 A 113.08225 113.08225 0 0 0 901.23438 448.98828 A 45.491429 45.491429 0 0 0 867.99023 434.49609 A 45.491429 45.491429 0 0 0 835.74609 447.94531 A 99.193718 99.193718 0 0 0 749.47656 397.45898 z "
       transform="matrix(0.26458333,0,0,0.26458333,0,-20.500017)"
       id="circle1068" />
    <g
       transform="translate(157.99405,48.00298)"
       id="g1380" />
  </g>
</svg>
